<svg xmlns="http://www.w3.org/2000/svg" x="0px" y="0px" width="100" height="100" viewBox="0 0 33.957 46.001">
<path d="m 16.958,2 h 0.048 a 15.026,15.026 0 0 1 14.951,15 c 0,6.251 -4.74,12.456 -11,14.657 v -4.865 a 10.561,10.561 0 0 0 6,-9.792 9.794,9.794 0 0 0 -10,-10 9.9,9.9 0 0 0 -10,10 10.559,10.559 0 0 0 6,9.792 v 15.4 C 9.669,37.983 3.1,28.579 2.1,19.569 A 16.31,16.31 0 0 1 6.1,6.9 14.434,14.434 0 0 1 16.958,2 m 0,-2 C 6.572,0 -1.027,9.456 0.113,19.788 1.285,30.411 9.75,41.674 13.206,45.656 A 0.971,0.971 0 0 0 13.948,46.001 1,1 0 0 0 14.957,45 V 26.154 A 1.022,1.022 0 0 0 14.327,25.227 8.577,8.577 0 0 1 8.957,17 a 7.887,7.887 0 0 1 8,-8 7.829,7.829 0 0 1 8,8 8.657,8.657 0 0 1 -5.37,8.226 1.025,1.025 0 0 0 -0.63,0.929 V 33 a 1.007,1.007 0 0 0 1.008,1 1.034,1.034 0 0 0 0.256,-0.033 C 27.544,32.078 33.957,24.914 33.957,17 A 17,17 0 0 0 17.012,0 Z"></path>
</svg>